# xmcd
#
# Track frame offsets:
#	152
#	19300
#	40300
#	59217
#	98722
#	118967
#	137270
#	154067
#	180940
#	199267
#	214555
#	232692
#	248057
#	267220
#	276222
#	292987
#	314037
#
# Disc length: 4315 seconds
#
# Revision: 1
# Processed by: cddbd v1.4PL0 Copyright (c) Steve Scherf et al.
# Submitted via: audiograbber 1.82.02
#
DISCID=f510d911
DTITLE=Robert Shaw - The Ma Grinder
DYEAR=1900
DGENRE=Blues
TTITLE0=The Ma Grinder
TTITLE1=Hattie Green
TTITLE2=The Fives
TTITLE3=Black Gal
TTITLE4=Put Me In The Alley
TTITLE5=Groceries On My Shelf (Piggly Wiggly)
TTITLE6=The Clinton
TTITLE7=People, People
TTITLE8=The Cows
TTITLE9=Whores Is Funky
TTITLE10=Hers I Come With My Dirty, Dirty Duckings On
TTITLE11=Saturday Night Special
TTITLE12=Jim Nappy
TTITLE13=Fast Santa Fe (Bear Cat)
TTITLE14=Mobile and K.C. Line
TTITLE15=Going Down To The Gulf
TTITLE16=She Used To Be My Baby (Ma Grinder #2)
EXTD=
EXTT0=
EXTT1=
EXTT2=
EXTT3=
EXTT4=
EXTT5=
EXTT6=
EXTT7=
EXTT8=
EXTT9=
EXTT10=
EXTT11=
EXTT12=
EXTT13=
EXTT14=
EXTT15=
EXTT16=
PLAYORDER=
